<!-- Generated with ChatGPT -->
<svg
        xmlns="http://www.w3.org/2000/svg"
        viewBox="0 0 128 128"
        fill="none"
>
    <defs>
        <linearGradient id="skyGradient" x1="0" y1="0" x2="1" y2="1">
            <stop offset="0%" stop-color="#22D3EE"/>
            <stop offset="100%" stop-color="#A855F7"/>
        </linearGradient>

        <linearGradient id="sunGradient" x1="0" y1="0" x2="1" y2="1">
            <stop offset="0%" stop-color="#FDE047"/>
            <stop offset="100%" stop-color="#F59E0B"/>
        </linearGradient>
    </defs>

    <!-- Sun -->
    <circle
            cx="46"
            cy="42"
            r="18"
            fill="url(#sunGradient)"
    />

    <!-- Sun rays -->
    <g
            stroke="url(#sunGradient)"
            stroke-width="4"
            stroke-linecap="round"
    >
        <line x1="46" y1="10" x2="46" y2="0"/>
        <line x1="46" y1="84" x2="46" y2="74"/>
        <line x1="14" y1="42" x2="4" y2="42"/>
        <line x1="88" y1="42" x2="98" y2="42"/>

        <line x1="23" y1="19" x2="15" y2="11"/>
        <line x1="69" y1="65" x2="77" y2="73"/>

        <line x1="23" y1="65" x2="15" y2="73"/>
        <line x1="69" y1="19" x2="77" y2="11"/>
    </g>

    <!-- Cloud -->
    <path
            d="
            M82 88
            C82 73 70 62 56 62
            C45 62 36 69 33 79
            C20 80 10 90 10 103
            C10 117 22 128 37 128
            H82
            C96 128 108 117 108 103
            C108 90 97 80 84 79
            C84 79 84 79 84 79
        "
            transform="translate(5 -15) scale(0.95)"
            fill="url(#skyGradient)"
    />
</svg>